<svg xmlns="http://www.w3.org/2000/svg" version="1.1" viewBox="486 488 1154 708">
<path transform="translate(624,488)" d="m0 0h38l25 2 22 4 18 6 14 7 12 9 10 9 11 13 15 21 5-3 9-11 9-9 14-11 16-10 17-7 17-4 8-1h16l21 3 16 5 18 8 20 12 10 8 10 9 13 13 10 13 11 17 11 20 10 24 8 24 5 24 4 25 2 21v46l-3 41-3 33-3 50-4 37-11 82-7 40-7 33 6-8 7-11 12-20 10-16 10-15 12-17 13-18 11-14 8-10 10-12 7-8 9-11 12-13 9-11 9-10 18-22 12-14 11-12 12-13 10-10 7-8 14-14 7-8 24-24 8-7 10-9 26-24 12-11 10-9 13-11 13-10 11-9 14-12 11-9 18-14 23-15 28-17 22-12 19-7 16-4h11l12 6 8 8 5 10 3 9 1 8v10l-5 3-7-1-7-6-4-10-4-12-3-5h-8l-13 4-17 7-23 13-12 8-18 13-14 10-13 10-11 9-20 15-14 11-14 12-14 11-17 14-8 7-14 12-15 14-13 12-17 16-13 13-8 7-37 37-9 11-9 10-7 8-9 10-13 15-9 11-13 18-13 17-13 19-14 20-13 20-10 15-14 22-13 23-9 16-13 24-10 18-8 15-11 25-6 9-3 2h-6l-2-5 1-17 3-28 6-31 23-127 11-75 7-76 5-41 1-18v-14l-2-28-6-38-9-36-10-30-9-20-10-18-10-14-12-14-11-10-14-10-16-9-15-6-17-4-8-1h-20l-18 3-10 4-12 7-14 12-8 8-12 17-10 19-2 7-2 23-4 24-8 35-15 52-9 25-6 10-6 5-6 1-6-3-4-5v-15l4-38 5-23 8-33 11-36 9-25 2-11-1-13-5-15-7-11-11-11-10-7-15-8-14-5-18-4-26-3-30-2h-17l-26 2-37 6-24 5-22 5-7 1h-9l-5-5 1-5 7-9 12-6 67-9 27-4z" fill="#FEFEFE"/>
<path transform="translate(1631,1022)" d="m0 0 5 1 3 7 1 7-4 5-9 3-61 10-63 12-45 10-33 9-48 16-39 14-29 11-30 12-29 13-31 15-16 8-17 8-16 8-13 5h-8l-5-4-1-3 6-8 8-7 18-10 16-8 33-17 28-12 40-17 45-18 40-14 40-12 64-16 36-8 47-9z" fill="#FEFEFE"/>
<path transform="translate(1272,608)" d="m0 0h6l2 3-1 8-8 16-10 16-9 14-22 32-10 14-16 23-8 11-12 17-24 32-14 20-12 16-7 8-5 3-5-1-2-2v-6l7-16 9-15 10-15 12-17 10-14 15-22 7-10 15-22 7-10 16-23 12-16 9-13 8-10 9-11 6-7z" fill="#FEFEFE"/>
</svg>